<svg xmlns="http://www.w3.org/2000/svg" xmlns:xlink="http://www.w3.org/1999/xlink" width="42" height="42" viewBox="0 0 42 42">
  <defs>
    <filter id="dropdown" x="0" y="0" width="42" height="42" filterUnits="userSpaceOnUse">
      <feOffset dy="3" input="SourceAlpha"/>
      <feGaussianBlur stdDeviation="3" result="blur"/>
      <feFlood flood-opacity="0.161"/>
      <feComposite operator="in" in2="blur"/>
      <feComposite in="SourceGraphic"/>
    </filter>
  </defs>
  <g transform="matrix(1, 0, 0, 1, 0, 0)" filter="url(#dropdown)">
    <path id="dropdown-2" data-name="dropdown" d="M0,12A12,12,0,1,0,12,0,12,12,0,0,0,0,12ZM16.679,9.5a1.118,1.118,0,0,1,1.575,0,1.1,1.1,0,0,1,.323.785,1.119,1.119,0,0,1-.329.79l-5.44,5.423a1.112,1.112,0,0,1-1.535-.035l-5.521-5.5A1.114,1.114,0,1,1,7.327,9.381l4.679,4.725Z" transform="translate(33 30) rotate(180)" fill="#3e075b"/>
  </g>
</svg>
