<svg xmlns="http://www.w3.org/2000/svg" width="21.975" height="16.482" viewBox="0 0 21.975 16.482">
  <path id="Icon_awesome-image" data-name="Icon awesome-image" d="M19.915,20.982H2.06A2.06,2.06,0,0,1,0,18.921V6.56A2.06,2.06,0,0,1,2.06,4.5H19.915a2.06,2.06,0,0,1,2.06,2.06V18.921A2.06,2.06,0,0,1,19.915,20.982ZM4.807,6.9a2.4,2.4,0,1,0,2.4,2.4A2.4,2.4,0,0,0,4.807,6.9ZM2.747,18.235H19.228V13.428L15.472,9.671a.515.515,0,0,0-.728,0L8.928,15.488,6.545,13.1a.515.515,0,0,0-.728,0L2.747,16.174Z" transform="translate(0 -4.5)"/>
</svg>
