<svg xmlns="http://www.w3.org/2000/svg" width="16" height="16.001" viewBox="0 0 16 16.001">
  <path id="update_time" data-name="update time" d="M20.5,10.829H14.475L16.91,8.322a6.257,6.257,0,0,0-8.783-.089,6.112,6.112,0,0,0,0,8.7,6.24,6.24,0,0,0,8.783,0,5.79,5.79,0,0,0,1.813-4.347H20.5a8.3,8.3,0,0,1-2.347,5.591,8.049,8.049,0,0,1-11.307,0A7.858,7.858,0,0,1,6.83,7,7.989,7.989,0,0,1,18.075,7L20.5,4.5ZM12.946,8.945v3.778l3.111,1.849-.64,1.076-3.8-2.258V8.945Z" transform="translate(-4.502 -4.5)" fill="#3e075b"/>
</svg>
