<svg xmlns="http://www.w3.org/2000/svg" width="24" height="24" viewBox="0 0 24 24">
  <path id="noti" d="M9.725,5.695,8,3.935A12.918,12.918,0,0,0,3.045,13.6H5.452A10.453,10.453,0,0,1,9.725,5.695Zm14.913,7.9h2.407a13,13,0,0,0-4.959-9.662l-1.709,1.76a10.515,10.515,0,0,1,4.261,7.9Zm-2.371.615c0-3.778-1.974-6.942-5.416-7.778V5.6a1.806,1.806,0,1,0-3.611,0v.837c-3.454.837-5.416,3.988-5.416,7.778v6.154L5.416,22.827v1.231H24.674V22.827l-2.407-2.462ZM15.045,27.75a2.063,2.063,0,0,0,.481-.049,2.455,2.455,0,0,0,1.733-1.452,2.52,2.52,0,0,0,.181-.96H12.626A2.452,2.452,0,0,0,15.045,27.75Z" transform="translate(-3.045 -3.75)" fill="#f9ac39"/>
</svg>
